<?xml version="1.0" encoding="UTF-8"?>
<svg version="1.1" xmlns="http://www.w3.org/2000/svg" width="400" height="400">
<path d="M0 0 C132 0 264 0 400 0 C400 132 400 264 400 400 C268 400 136 400 0 400 C0 268 0 136 0 0 Z " fill="#FEFEFE" transform="translate(0,0)"/>
<path d="M0 0 C1.19972786 -0.00551503 1.19972786 -0.00551503 2.42369264 -0.01114148 C5.11892954 -0.02220408 7.81412792 -0.02602656 10.50938416 -0.02983093 C12.43593977 -0.03609379 14.36249417 -0.04274043 16.28904724 -0.04974365 C21.53522935 -0.06717338 26.78140234 -0.07771144 32.02760625 -0.08594918 C35.30518391 -0.09109665 38.58275874 -0.0971726 41.8603344 -0.10346031 C52.11458417 -0.1225205 62.36882671 -0.13674816 72.6230908 -0.14507228 C84.46010136 -0.15483955 96.29692465 -0.18114235 108.13386923 -0.22157317 C117.2813222 -0.25174496 126.42872155 -0.26654229 135.57622331 -0.26985329 C141.03994478 -0.27220315 146.50346639 -0.28115496 151.96713448 -0.30631447 C157.11108848 -0.32961773 162.25471139 -0.33381924 167.39870453 -0.32355309 C169.28324167 -0.32305812 171.16779523 -0.32936704 173.05228233 -0.34310913 C192.83943939 -0.47928533 192.83943939 -0.47928533 201.09117126 6.45967102 C208.931132 15.82406856 209.56960323 22.54264144 209.63633728 34.70185852 C209.64783751 36.15833771 209.66825869 37.6147754 209.69786072 39.07099915 C209.91010975 49.53404659 209.33201549 58.25220924 202.09117126 66.45967102 C201.57039001 67.07455383 201.04960876 67.68943665 200.51304626 68.32295227 C192.58789181 74.97951186 184.52897908 74.75095662 174.68492126 74.75654602 C173.17176052 74.77154624 171.65861604 74.78827723 170.14549255 74.80665588 C166.18686625 74.85013564 162.22846074 74.87028504 158.26963806 74.88539124 C153.50696112 74.90849359 148.74452527 74.96090065 143.98204041 75.0083313 C136.76835483 75.07692524 129.5553598 75.10855117 122.34117126 75.14717102 C117.72117126 84.71717102 113.10117126 94.28717102 108.34117126 104.14717102 C105.34117126 103.14717102 105.34117126 103.14717102 103.50914001 99.97138977 C102.83880504 98.59740297 102.17907238 97.2182053 101.52867126 95.83467102 C100.87661707 94.48427075 100.22426443 93.13401455 99.57164001 91.78388977 C99.24785873 91.10613998 98.92407745 90.4283902 98.59048462 89.73010254 C97.15352454 86.759215 95.6799085 83.80798225 94.20176697 80.8573761 C93.66501846 79.78546524 93.12826996 78.71355438 92.57525635 77.60916138 C92.16800827 76.79670456 91.76076019 75.98424774 91.34117126 75.14717102 C90.14371277 75.14130478 88.94625427 75.13543854 87.71250916 75.12939453 C76.41287055 75.07211529 65.11342343 74.99932625 53.8139801 74.91145611 C48.00518691 74.86677968 42.19646343 74.82751734 36.38755798 74.80073547 C30.77884156 74.77467559 25.17039373 74.73425368 19.56184387 74.68398476 C17.42493538 74.66733429 15.28798045 74.65580871 13.15101624 74.64955711 C10.15161662 74.63989641 7.15290136 74.61181288 4.15367126 74.57954407 C3.27541183 74.58097916 2.3971524 74.58241425 1.49227905 74.58389282 C-6.39566531 74.46432831 -13.11122759 72.49461988 -19.05335999 67.09638977 C-26.14357405 58.48807634 -26.86382716 48.71066906 -26.90882874 38.08467102 C-26.92945374 36.8942218 -26.95007874 35.70377258 -26.97132874 34.47724915 C-27.01222919 25.17750834 -26.12434849 16.32132801 -20.25648499 8.74873352 C-14.22081991 2.69831132 -8.36992006 -0.00204505 0 0 Z " fill="#5856FE" transform="translate(141.65882873535156,79.85282897949219)"/>
<path d="M0 0 C1.10450916 -0.00935994 1.10450916 -0.00935994 2.23133165 -0.01890898 C4.69412486 -0.03483983 7.15592841 -0.02223477 9.61872864 -0.00964355 C11.38647539 -0.01506489 13.15421762 -0.02218761 14.92195129 -0.03088379 C19.72187294 -0.04912541 24.52145079 -0.04204438 29.32137847 -0.02936745 C34.34956647 -0.01923621 39.37772514 -0.02863421 44.40591431 -0.03491211 C52.85532406 -0.0421915 61.30459402 -0.03259665 69.75398254 -0.0135498 C79.50776958 0.00818428 89.26122171 0.00119395 99.01500052 -0.02085543 C107.39738291 -0.03904319 115.7796648 -0.0415502 124.16206056 -0.03110075 C129.16463693 -0.02487983 134.16705628 -0.02399082 139.16962242 -0.0372467 C143.87866899 -0.04885247 148.58728697 -0.04069352 153.29628754 -0.01766968 C155.01913303 -0.01240622 156.74201493 -0.01385561 158.46484566 -0.02272034 C168.89486415 -0.07141394 177.18701909 0.72166115 186.34455872 6.13293457 C194.47385486 14.71385828 195.82578142 23.03970361 195.88972473 34.37463379 C195.90116518 35.78261427 195.92148924 37.19055416 195.95124817 38.5982666 C196.16740537 48.83614794 195.26136382 57.48389761 189.84455872 66.38293457 C183.24404931 72.61674901 176.28424924 75.75444944 167.20016479 75.76863098 C166.09754756 75.7743693 166.09754756 75.7743693 164.97265524 75.78022355 C162.51460002 75.79052538 160.05677962 75.7865668 157.59870911 75.78259277 C155.83432805 75.7869408 154.06994887 75.79212425 152.30557251 75.79808044 C147.51634099 75.81147163 142.72718838 75.812049 137.93794179 75.80951715 C133.93935684 75.80844757 129.94078786 75.81333044 125.94220632 75.81812257 C116.5090102 75.82921806 107.07585391 75.82965484 97.64265442 75.8236084 C87.91156726 75.81756693 78.18062463 75.82988393 68.44956213 75.85117847 C60.09358869 75.86879144 51.73766126 75.87479633 43.38166994 75.87154073 C38.39153294 75.86972732 33.40149905 75.87236983 28.41137886 75.88625526 C23.71884218 75.89882409 19.02653092 75.89689845 14.33399773 75.88384438 C12.6126892 75.88147703 10.89136485 75.88421896 9.17007446 75.8924675 C6.81843334 75.9029234 4.46755024 75.89484411 2.11593628 75.88215637 C0.80057923 75.88232411 -0.51477781 75.88249186 -1.86999416 75.88266468 C-6.98678051 75.34032482 -10.23331923 73.77509355 -13.71794128 70.00793457 C-16.80557269 65.43366582 -16.49261905 61.82577856 -16.40544128 56.50793457 C-11.45544128 56.50793457 -6.50544128 56.50793457 -1.40544128 56.50793457 C-1.40544128 44.29793457 -1.40544128 32.08793457 -1.40544128 19.50793457 C-6.35544128 19.50793457 -11.30544128 19.50793457 -16.40544128 19.50793457 C-16.79550336 13.07191031 -16.78405546 9.59659429 -12.40544128 4.50793457 C-8.3268738 0.51436796 -5.65253063 0.00647196 0 0 Z " fill="#030303" transform="translate(61.40544128417969,233.4920654296875)"/>
<path d="M0 0 C17.80294471 -0.09363119 35.60582511 -0.16407093 53.4089632 -0.20724869 C61.67612779 -0.22783384 69.94313898 -0.25587653 78.21020508 -0.30175781 C85.41963073 -0.34175008 92.62894524 -0.3674622 99.83847874 -0.37635398 C103.65243657 -0.38154789 107.46607653 -0.39366977 111.27993202 -0.42292023 C114.8775439 -0.45028587 118.47471022 -0.45840294 122.07241631 -0.45243073 C124.00624178 -0.45403757 125.94001991 -0.47544888 127.87371826 -0.49768066 C138.30430204 -0.44892147 146.64539376 2.03059478 155.30078125 7.859375 C157.0948217 9.1119417 157.0948217 9.1119417 159.5625 10.3125 C169.35428811 17.09143023 176.72828358 30.01043471 179.08984375 41.55859375 C180.42896181 49.35698717 180.37206343 57.20520819 180.37060547 65.09570312 C180.37496876 67.73113158 180.4113633 70.36486728 180.44921875 73 C180.51751611 83.65889107 179.40130883 92.85966738 176 103 C175.34 103 174.68 103 174 103 C173.83757812 104.10021484 173.83757812 104.10021484 173.671875 105.22265625 C172.55995466 109.81902461 169.74292332 113.21503473 167 117 C165.88625 118.546875 165.88625 118.546875 164.75 120.125 C156.72833206 128.51128921 144.89314068 135.88111858 132.99957371 136.24609566 C131.50889818 136.25440824 130.01813619 136.2519101 128.52748108 136.24050903 C127.70070608 136.24221788 126.87393108 136.24392673 126.0221023 136.24568737 C123.2660287 136.24896807 120.51020136 136.23800206 117.75415039 136.22705078 C115.77284755 136.22648636 113.79154429 136.22680383 111.8102417 136.22793579 C106.44095598 136.2285091 101.07175979 136.21675828 95.70249486 136.20278788 C90.08775491 136.1902769 84.47301285 136.18910973 78.85826111 136.18673706 C68.23014267 136.18052338 57.60206542 136.16411404 46.97396511 136.14403808 C34.87246683 136.12167563 22.77096658 136.11068477 10.66945279 136.10064721 C-14.22038764 136.07974775 -39.11019151 136.04457391 -64 136 C-62.6552978 132.51308042 -61.25373156 129.67932864 -59 126.6875 C-58.484375 125.99011719 -57.96875 125.29273438 -57.4375 124.57421875 C-56.963125 124.05472656 -56.48875 123.53523438 -56 123 C-55.34 123 -54.68 123 -54 123 C-53.731875 122.236875 -53.46375 121.47375 -53.1875 120.6875 C-51.96885588 117.92951593 -51.41775772 116.74197438 -49 115 C-46.49474747 114.7127229 -44.2393378 114.60961236 -41.7346344 114.64164734 C-40.98916428 114.63923391 -40.24369416 114.63682047 -39.47563404 114.63433391 C-36.96995138 114.62972013 -34.46485511 114.64642563 -31.95922852 114.6628418 C-30.16547149 114.66364791 -28.37171336 114.66305459 -26.57795715 114.66116333 C-22.70975885 114.65959988 -18.84171605 114.66700947 -14.97354317 114.68100548 C-8.84965013 114.70212009 -2.72594778 114.69738218 3.39796448 114.6879425 C20.81410398 114.66505857 38.23013117 114.67689996 55.64624023 114.71508789 C65.26120215 114.73594131 74.8759276 114.73516973 84.49088532 114.71155292 C90.5701876 114.69791445 96.64865009 114.71097048 102.72786796 114.74415052 C106.52528497 114.75856543 110.32233168 114.74779279 114.11972237 114.73016739 C115.87077193 114.72700851 117.62187609 114.73396997 119.37283325 114.75223351 C132.43406359 114.88031754 141.75620542 112.80500498 152 104 C153.81560278 101.36975096 153.81560278 101.36975096 155.25 98.5 C155.75015625 97.5615625 156.2503125 96.623125 156.765625 95.65625 C158.47981612 91.96748429 159.12194929 88.81094607 159.17700195 84.75732422 C159.18983719 83.92901093 159.20267242 83.10069763 159.21589661 82.24728394 C159.22328354 81.35872711 159.23067047 80.47017029 159.23828125 79.5546875 C159.25038887 78.16710739 159.25038887 78.16710739 159.26274109 76.75149536 C159.27656025 74.79300803 159.28729208 72.83449682 159.29516602 70.87597656 C159.30666038 68.88599523 159.32707163 66.89604411 159.35668945 64.90625 C159.39965767 62.01801786 159.41557731 59.13070082 159.42578125 56.2421875 C159.45204338 54.92757034 159.45204338 54.92757034 159.47883606 53.58639526 C159.45042966 45.36007818 157.14021869 37.52018667 151.375 31.4375 C150.48941406 30.47650391 150.48941406 30.47650391 149.5859375 29.49609375 C148.05392273 27.90677372 148.05392273 27.90677372 146 27 C146 26.34 146 25.68 146 25 C145.484375 24.896875 144.96875 24.79375 144.4375 24.6875 C142 24 142 24 139.11448669 22.48405457 C133.84039892 20.21662038 128.38191911 20.56053579 122.73071289 20.56762695 C121.51049438 20.5574353 120.29027588 20.54724365 119.03308105 20.53674316 C115.70496079 20.51181171 112.37728114 20.4999032 109.04910588 20.49388909 C105.56436153 20.48447788 102.07974343 20.45827239 98.59507751 20.43388367 C92.00442428 20.39029022 85.41379566 20.36169945 78.82304233 20.33856028 C71.31629936 20.31147011 63.80968384 20.26756105 56.30303204 20.22227156 C40.86875364 20.12952786 25.43445122 20.05780026 10 20 C9.59442871 19.25306885 9.18885742 18.5061377 8.77099609 17.73657227 C7.96782959 16.26015259 7.96782959 16.26015259 7.1484375 14.75390625 C6.61911621 13.7801001 6.08979492 12.80629395 5.54443359 11.80297852 C4.2711188 9.49205105 2.96346879 7.21086261 1.625 4.9375 C0 2 0 2 0 0 Z " fill="#E9BB07" transform="translate(110,205)"/>
<path d="M0 0 C0.88787844 -0.00579339 1.77575688 -0.01158677 2.69054073 -0.01755571 C5.65362825 -0.03553536 8.61669693 -0.046463 11.57981873 -0.05725098 C13.7090217 -0.06843296 15.83822296 -0.07994649 17.96742249 -0.09176636 C24.94553708 -0.12822344 31.92366935 -0.15351818 38.90184021 -0.1763916 C40.0895951 -0.18033747 41.27734998 -0.18428333 42.50109744 -0.18834877 C53.7021632 -0.22474098 64.90323536 -0.25617783 76.10434055 -0.27745819 C90.42753905 -0.30507545 104.75024474 -0.35595612 119.07323796 -0.43793249 C129.14896848 -0.49365098 139.22456488 -0.52268288 149.30044407 -0.5319314 C155.31804355 -0.53819637 161.33506388 -0.55638785 167.35249519 -0.60331726 C173.00882578 -0.64688999 178.66425851 -0.65750075 184.3207283 -0.64268875 C186.39683867 -0.64301814 188.47298686 -0.65535176 190.54894447 -0.68053818 C193.38300551 -0.71311014 196.21375819 -0.70253323 199.04785156 -0.68115234 C199.86993546 -0.70086011 200.69201935 -0.72056788 201.53901488 -0.74087286 C204.94083579 -0.67602868 207.10625723 -0.49821936 209.83860385 1.63083553 C213.79824397 5.94346587 213.79824397 5.94346587 214.24641997 9.32542086 C214.08543396 11.4798584 214.08543396 11.4798584 212.96043396 15.1673584 C210.89793396 16.6673584 210.89793396 16.6673584 208.96043396 17.1673584 C208.96043396 17.8273584 208.96043396 18.4873584 208.96043396 19.1673584 C204.44468938 20.29882933 200.01516492 20.30595236 195.39157104 20.29193115 C194.53005261 20.2933413 193.66853418 20.29475145 192.78090912 20.29620433 C189.89468937 20.29985358 187.00851887 20.29652235 184.12229919 20.29333496 C182.05238812 20.29472998 179.98247733 20.29662946 177.91256714 20.29899597 C173.45405282 20.30349199 168.9955477 20.30534904 164.53703117 20.30545807 C157.48047431 20.30659913 150.42396968 20.31944343 143.36743164 20.33502197 C141.58017399 20.33888125 141.58017399 20.33888125 139.75681013 20.3428185 C137.32023553 20.34808512 134.88366097 20.3533706 132.44708645 20.35867453 C116.0204566 20.39376358 99.59389152 20.4203384 83.16722107 20.41784668 C72.08511256 20.41625604 61.00318216 20.43234259 49.92113072 20.4685533 C44.0599636 20.48698205 38.19909374 20.49638299 32.33790398 20.48407745 C26.81952383 20.47260415 21.30167495 20.48443046 15.78336525 20.51371193 C13.76465183 20.52032842 11.74588941 20.51852726 9.72719574 20.50741386 C-3.58697052 20.44023242 -14.47922944 21.06160331 -25.03956604 30.1673584 C-26.80979996 32.50222039 -26.80979996 32.50222039 -28.22706604 35.0423584 C-28.71562073 35.86478027 -29.20417542 36.68720215 -29.70753479 37.5345459 C-32.77842172 43.60427549 -33.32728849 48.73151129 -33.27003479 55.40563965 C-33.26957657 56.28584274 -33.26911835 57.16604584 -33.26864624 58.07292175 C-33.26563502 59.92952833 -33.25778271 61.78613263 -33.24537659 63.6427002 C-33.22719254 66.46025725 -33.22486673 69.27748329 -33.22511292 72.09509277 C-33.22019384 73.90694453 -33.21436383 75.71879409 -33.20753479 77.53063965 C-33.20642197 78.3621907 -33.20530914 79.19374176 -33.2041626 80.05049133 C-33.16083028 85.48960406 -32.71744839 90.76965683 -32.03956604 96.1673584 C-31.37956604 96.1673584 -30.71956604 96.1673584 -30.03956604 96.1673584 C-29.45175354 97.1573584 -29.45175354 97.1573584 -28.85206604 98.1673584 C-27.33344607 100.68093629 -25.81528128 102.88900712 -23.97706604 105.1673584 C-23.47046448 105.8067334 -22.96386292 106.4461084 -22.44190979 107.1048584 C-15.61461262 112.96634279 -8.5525356 114.91147203 0.27537537 114.82678223 C1.25219269 114.83726593 2.22901001 114.84774963 3.23542786 114.85855103 C6.42794884 114.88709322 9.61937183 114.88103386 12.81199646 114.87438965 C15.03974248 114.88751726 17.26747663 114.90282473 19.49519348 114.92021179 C25.33128683 114.95994978 31.16706798 114.97024507 37.00328064 114.97424316 C42.96956281 114.98359566 48.93566317 115.02102251 54.90184021 115.05603027 C66.58802972 115.12049222 78.2740822 115.15382578 89.96043396 115.1673584 C90.36600525 115.91501465 90.77157654 116.6626709 91.18943787 117.4329834 C91.7248822 118.41782715 92.26032654 119.4026709 92.81199646 120.4173584 C93.60597839 121.87915527 93.60597839 121.87915527 94.41600037 123.3704834 C95.6826796 125.6643622 96.99174218 127.91846165 98.33543396 130.1673584 C99.96043396 133.1673584 99.96043396 133.1673584 99.96043396 136.1673584 C86.4601268 136.21380061 72.95983881 136.24928791 59.45946789 136.27098274 C53.18998571 136.28139776 46.9205584 136.29551523 40.65110779 136.3182373 C34.59513119 136.3400471 28.53920721 136.35194417 22.48319435 136.35711288 C20.17846665 136.36079406 17.87374166 136.36798231 15.56903648 136.37881851 C12.32859053 136.39344156 9.08835903 136.39533183 5.84788513 136.39440918 C4.90560562 136.40159973 3.96332611 136.40879028 2.99249268 136.41619873 C-9.43457551 136.37817758 -22.07697082 134.03256515 -32.03956604 126.1673584 C-32.03956604 125.5073584 -32.03956604 124.8473584 -32.03956604 124.1673584 C-32.6286676 123.91212402 -33.21776917 123.65688965 -33.82472229 123.3939209 C-42.62744114 118.51904662 -47.81601584 107.3903434 -51.14503479 98.36657715 C-54.07210356 87.89815217 -54.52184654 77.53233688 -54.53956604 66.7298584 C-54.54124786 65.93321777 -54.54292969 65.13657715 -54.54466248 64.3157959 C-54.50641831 46.91666621 -52.30974157 32.04158206 -41.09034729 18.18688965 C-39.03956604 16.1673584 -39.03956604 16.1673584 -36.03956604 15.1673584 C-35.74308167 14.56020996 -35.44659729 13.95306152 -35.14112854 13.32751465 C-32.41825916 7.98798711 -25.28102909 4.44906975 -19.85206604 2.2923584 C-13.23206613 0.3389158 -6.84206591 0.01553925 0 0 Z " fill="#E9BC0A" transform="translate(136.03956604003906,51.8326416015625)"/>
<path d="M0 0 C16.86354755 -0.06772509 33.72697902 -0.12298645 50.59062481 -0.15543652 C58.42073625 -0.17090423 66.25075719 -0.19199188 74.08081055 -0.22631836 C80.9056321 -0.2562237 87.7303881 -0.2755757 94.55527335 -0.28226548 C98.16889136 -0.28617584 101.78232185 -0.29536357 105.39587975 -0.31719017 C109.43026416 -0.3413609 113.46432272 -0.34196927 117.4987793 -0.34057617 C118.69639893 -0.351362 119.89401855 -0.36214783 121.12792969 -0.3732605 C122.22864304 -0.36913651 123.32935638 -0.36501251 124.46342468 -0.36076355 C125.41748042 -0.36352893 126.37153616 -0.36629431 127.35450268 -0.36914349 C131.55204422 0.21656685 134.19637042 2.27329906 137.28515625 5.06640625 C139.7806411 9.33544752 139.54711812 13.08247829 139.4375 17.9375 C139.44458984 18.81857422 139.45167969 19.69964844 139.45898438 20.60742188 C139.40878777 25.76222692 139.05864856 29.66098693 136 34 C130.40721574 39.13225035 124.68746135 38.54205103 117.38525391 38.45410156 C115.48199341 38.45497772 115.48199341 38.45497772 113.5402832 38.45587158 C110.07357817 38.45701608 106.60743027 38.43355047 103.14085436 38.40557575 C99.51339599 38.38051756 95.8859239 38.37821664 92.25839233 38.37347412 C85.39485493 38.36105724 78.53157332 38.32825333 71.6681484 38.28807616 C63.85199102 38.24331814 56.03582123 38.22136132 48.21956754 38.20129442 C32.14620514 38.15951929 16.07319496 38.08618335 0 38 C0 25.46 0 12.92 0 0 Z " fill="#FAFAFA" transform="translate(99,253)"/>
<path d="M0 0 C12.87 0 25.74 0 39 0 C39 16.83 39 33.66 39 51 C36.10190418 49.55095209 33.87555182 48.28704704 31.328125 46.3984375 C30.66425781 45.90859375 30.00039062 45.41875 29.31640625 44.9140625 C28.29353516 44.15222656 28.29353516 44.15222656 27.25 43.375 C26.55261719 42.859375 25.85523438 42.34375 25.13671875 41.8125 C23.42244733 40.54440881 21.71094844 39.2725711 20 38 C13.96251195 41.75123339 8.06431068 45.5538143 2.4609375 49.93359375 C1 51 1 51 0 51 C0 46.71 0 42.42 0 38 C-4.95 38 -9.9 38 -15 38 C-15 37.67 -15 37.34 -15 37 C-10.05 37 -5.1 37 0 37 C0 24.79 0 12.58 0 0 Z " fill="#BE3434" transform="translate(60,253)"/>
<path d="M0 0 C10.74643153 0.73437259 21.48674538 0.77801802 32.25450134 0.84043884 C35.91291404 0.86178875 39.57124941 0.88877339 43.22961426 0.91711426 C52.30110695 0.98629957 61.37265518 1.04634644 70.44421387 1.10614014 C78.14748183 1.15721271 85.8507049 1.21203821 93.5539093 1.2719574 C97.14607379 1.29836563 100.73824309 1.31926747 104.33044434 1.33996582 C106.53930875 1.35657464 108.74817119 1.37344699 110.95703125 1.390625 C111.94524872 1.39480942 112.93346619 1.39899384 113.95162964 1.40330505 C119.69908059 1.45485881 125.30667771 1.68026077 130.99023438 2.58007812 C131.32023438 3.24007812 131.65023437 3.90007812 131.99023438 4.58007812 C85.79023438 4.25007812 39.59023437 3.92007813 -8.00976562 3.58007812 C-8.33976562 4.24007812 -8.66976562 4.90007812 -9.00976562 5.58007812 C-9.00976562 3.93007812 -9.00976562 2.28007812 -9.00976562 0.58007812 C-6.05682112 -0.89639413 -3.20602544 -0.25328173 0 0 Z " fill="#FAF3D8" transform="translate(118.009765625,201.419921875)"/>
<path d="M0 0 C3.1837982 3.59461087 4.01574101 5.07870506 5 10 C-29.65 10 -64.3 10 -100 10 C-100 9.67 -100 9.34 -100 9 C-95.26977346 7.8030376 -90.6494825 7.8270718 -85.8034668 7.79467773 C-84.42711815 7.77982834 -84.42711815 7.77982834 -83.02296448 7.76467896 C-79.99840857 7.73316099 -76.97383697 7.70834493 -73.94921875 7.68359375 C-71.84885761 7.66301585 -69.74850053 7.64201915 -67.64814758 7.62062073 C-62.1260813 7.56548648 -56.60397817 7.5160391 -51.08184814 7.46777344 C-45.44450612 7.41749524 -39.80721745 7.36184217 -34.16992188 7.30664062 C-23.11332685 7.19916483 -12.05668546 7.09769641 -1 7 C-1.495 6.01 -1.495 6.01 -2 5 C-1.34 5 -0.68 5 0 5 C0 3.35 0 1.7 0 0 Z " fill="#E8BF18" transform="translate(231,178)"/>
<path d="M0 0 C0.75 1.75 0.75 1.75 1 4 C-0.32 5.32 -1.64 6.64 -3 8 C95.01 8.495 95.01 8.495 195 9 C195 9.33 195 9.66 195 10 C128.67 10 62.34 10 -6 10 C-4.29395475 5.73488687 -2.90212286 3.38581001 0 0 Z " fill="#EFC11A" transform="translate(52,331)"/>
<path d="M0 0 C12.87 0 25.74 0 39 0 C39 12.87 39 25.74 39 39 C38.01 38.505 38.01 38.505 37 38 C36.505 20.675 36.505 20.675 36 3 C25.64915695 2.75062316 25.64915695 2.75062316 15.29785156 2.52197266 C14.0084668 2.4863623 12.71908203 2.45075195 11.390625 2.4140625 C10.38491455 2.39702271 10.38491455 2.39702271 9.35888672 2.37963867 C5.46873165 2.25942911 3.59933154 1.79966577 0 0 Z " fill="#B5302C" transform="translate(60,253)"/>
<path d="M0 0 C0.33 0 0.66 0 1 0 C1.05534912 0.78238037 1.11069824 1.56476074 1.16772461 2.37084961 C1.41958041 5.89342387 1.67844455 9.41544822 1.9375 12.9375 C2.02451172 14.16919922 2.11152344 15.40089844 2.20117188 16.66992188 C2.28818359 17.83974609 2.37519531 19.00957031 2.46484375 20.21484375 C2.543396 21.29886475 2.62194824 22.38288574 2.70288086 23.49975586 C2.73108434 25.93732551 2.73108434 25.93732551 4 27 C4.04063832 28.66617115 4.042721 30.33388095 4 32 C3.01 32.495 3.01 32.495 2 33 C0.35197475 28.67179527 -0.23933471 25.13014416 -0.1953125 20.5078125 C-0.18886719 19.30898437 -0.18242188 18.11015625 -0.17578125 16.875 C-0.15902344 15.6375 -0.14226562 14.4 -0.125 13.125 C-0.11597656 11.86429688 -0.10695313 10.60359375 -0.09765625 9.3046875 C-0.07415808 6.2029296 -0.04130334 3.10156348 0 0 Z " fill="#7B78FC" transform="translate(115,104)"/>
<path d="M0 0 C0.66 0 1.32 0 2 0 C2.33 1.32 2.66 2.64 3 4 C2.67 4 2.34 4 2 4 C2.33 7.3 2.66 10.6 3 14 C2.34 14 1.68 14 1 14 C0.67 13.34 0.34 12.68 0 12 C-0.99 12.33 -1.98 12.66 -3 13 C-3 12.34 -3 11.68 -3 11 C-3.66 11 -4.32 11 -5 11 C-3.55049545 7.2089881 -1.84827434 3.6125362 0 0 Z " fill="#E9BE17" transform="translate(268,298)"/>
<path d="M0 0 C0.928125 0.2784375 0.928125 0.2784375 1.875 0.5625 C4.04160178 1.23686176 4.04160178 1.23686176 6 0 C6.66 0.33 7.32 0.66 8 1 C8 1.66 8 2.32 8 3 C8.66 3 9.32 3 10 3 C11 5 11 5 12 8 C12.66 8 13.32 8 14 8 C14 8.66 14 9.32 14 10 C9.83492783 9.45994624 7.45554561 8.16934899 4.1875 5.5625 C3.39730469 4.94503906 2.60710937 4.32757813 1.79296875 3.69140625 C1.20128906 3.13324219 0.60960938 2.57507813 0 2 C0 1.34 0 0.68 0 0 Z " fill="#635FF7" transform="translate(121,143)"/>
<path d="M0 0 C0.33 0 0.66 0 1 0 C1.02468447 4.80549747 1.04285255 9.61095818 1.05493164 14.41650391 C1.05996621 16.05192711 1.06679427 17.6873458 1.07543945 19.32275391 C1.08754335 21.67090975 1.093237 24.01900619 1.09765625 26.3671875 C1.10281754 27.10057343 1.10797882 27.83395935 1.11329651 28.58956909 C1.11387171 33.77225659 1.11387171 33.77225659 0 36 C0.66 36 1.32 36 2 36 C1.67 37.98 1.34 39.96 1 42 C-1 40 -1 40 -1.13525391 36.10107422 C-1.09286789 34.41864764 -1.03918783 32.73648232 -0.9765625 31.0546875 C-0.95153656 30.1696756 -0.92651062 29.2846637 -0.90072632 28.37283325 C-0.81840545 25.53983944 -0.72186323 22.70753032 -0.625 19.875 C-0.56677276 17.95705942 -0.50946923 16.03909057 -0.453125 14.12109375 C-0.31280872 9.4136671 -0.15973467 4.70680614 0 0 Z " fill="#FAFEF3" transform="translate(268,256)"/>
<path d="M0 0 C0.66 0 1.32 0 2 0 C1.39254603 4.85963179 -0.72758967 8.7405518 -3 13 C-3.99 12.67 -4.98 12.34 -6 12 C-6.6875 9.9375 -6.6875 9.9375 -7 8 C-6.01 8 -5.02 8 -4 8 C-4 6.68 -4 5.36 -4 4 C-3.01 4 -2.02 4 -1 4 C-0.67 2.68 -0.34 1.36 0 0 Z " fill="#605CF9" transform="translate(253,171)"/>
<path d="M0 0 C3.93846154 4.30769231 3.93846154 4.30769231 4.25 7.8125 C4.1675 8.534375 4.085 9.25625 4 10 C3.34 10 2.68 10 2 10 C1.67 10.99 1.34 11.98 1 13 C-1.30143236 9.54785147 -1.13833854 8.76520676 -0.625 4.8125 C-0.51414062 3.91144531 -0.40328125 3.01039062 -0.2890625 2.08203125 C-0.19367188 1.39496094 -0.09828125 0.70789063 0 0 Z " fill="#605CFD" transform="translate(346,91)"/>
<path d="M0 0 C0 0.99 0 1.98 0 3 C-1.98 3.99 -1.98 3.99 -4 5 C-4 6.65 -4 8.3 -4 10 C-4.66 10 -5.32 10 -6 10 C-6.33 11.32 -6.66 12.64 -7 14 C-7.99 14 -8.98 14 -10 14 C-7.96733835 8.24079198 -5.22242519 3.35727334 0 0 Z " fill="#6563F6" transform="translate(127,84)"/>
<path d="M0 0 C0.99 0.33 1.98 0.66 3 1 C2.125 6.75 2.125 6.75 1 9 C-0.32 9 -1.64 9 -3 9 C-2.5020163 5.26512223 -2.12508244 3.18762365 0 0 Z " fill="#FBF7E1" transform="translate(84,83)"/>
<path d="M0 0 C1.04449911 3.13349732 0.93423645 3.98968256 0 7 C-0.99 7 -1.98 7 -3 7 C-3.33 7.99 -3.66 8.98 -4 10 C-6 10 -6 10 -9 9 C-8.51789063 8.60167969 -8.03578125 8.20335937 -7.5390625 7.79296875 C-6.90742188 7.26316406 -6.27578125 6.73335937 -5.625 6.1875 C-4.99851562 5.66542969 -4.37203125 5.14335937 -3.7265625 4.60546875 C-1.7778952 2.91774261 -1.7778952 2.91774261 0 0 Z " fill="#ECEEF7" transform="translate(347,141)"/>
<path d="M0 0 C1.5625 1 1.5625 1 3 3 C3.17205113 5.8044334 2.87687256 8.32900003 2 11 C-0.0625 12.5 -0.0625 12.5 -2 13 C-2 11.02 -2 9.04 -2 7 C-1.01 7.495 -1.01 7.495 0 8 C0 5.36 0 2.72 0 0 Z " fill="#E9C423" transform="translate(347,56)"/>
<path d="M0 0 C0.66 0.99 1.32 1.98 2 3 C1.3125 5.625 1.3125 5.625 0 8 C-0.99 8.33 -1.98 8.66 -3 9 C-2.34 7.35 -1.68 5.7 -1 4 C-2.65 4.66 -4.3 5.32 -6 6 C-4 4 -2 2 0 0 Z " fill="#EABF1C" transform="translate(262,309)"/>
<path d="M0 0 C5.53846154 0.61538462 5.53846154 0.61538462 7.875 2.5625 C8.431875 3.2740625 8.431875 3.2740625 9 4 C6.69 4.33 4.38 4.66 2 5 C2 4.34 2 3.68 2 3 C1.01 2.67 0.02 2.34 -1 2 C-0.67 1.34 -0.34 0.68 0 0 Z " fill="#FAF9EE" transform="translate(244,226)"/>
<path d="M0 0 C1.5 1.3125 1.5 1.3125 3 3 C3 3.99 3 4.98 3 6 C3.66 6 4.32 6 5 6 C4.67 8.31 4.34 10.62 4 13 C3.34 12.67 2.68 12.34 2 12 C1.64080332 10.33871537 1.31088368 8.67099977 1 7 C0.62875 6.29875 0.2575 5.5975 -0.125 4.875 C-1 3 -1 3 0 0 Z " fill="#FBF8E8" transform="translate(233,176)"/>
<path d="M0 0 C0.66 0 1.32 0 2 0 C1.67 3.3 1.34 6.6 1 10 C-0.65 10 -2.3 10 -4 10 C-2.68 6.7 -1.36 3.4 0 0 Z " fill="#F0F1F7" transform="translate(262,157)"/>
<path d="M0 0 C4.875 4.625 4.875 4.625 6 8 C3 9 3 9 0.8125 8.0625 C0.214375 7.711875 -0.38375 7.36125 -1 7 C-1 6.34 -1 5.68 -1 5 C-0.34 5 0.32 5 1 5 C0.67 3.35 0.34 1.7 0 0 Z " fill="#ECC22B" transform="translate(277,224)"/>
<path d="M0 0 C4.7517398 0.43197635 6.92000054 1.32769295 10 5 C5.91621923 5 2.87684087 4.19287411 -1 3 C-0.67 2.01 -0.34 1.02 0 0 Z " fill="#5E5AF7" transform="translate(331,81)"/>
<path d="M0 0 C3.465 1.485 3.465 1.485 7 3 C6.01 4.32 5.02 5.64 4 7 C3.01 6.67 2.02 6.34 1 6 C1 5.34 1 4.68 1 4 C0.01 3.34 -0.98 2.68 -2 2 C-1.34 2 -0.68 2 0 2 C0 1.34 0 0.68 0 0 Z " fill="#ECC01D" transform="translate(115,161)"/>
<path d="M0 0 C-1.485 2.475 -1.485 2.475 -3 5 C-5.31 4.34 -7.62 3.68 -10 3 C-4.375 -1.3125 -4.375 -1.3125 0 0 Z " fill="#6663FB" transform="translate(138,81)"/>
<path d="M0 0 C1.875 0.1875 1.875 0.1875 4 1 C5.25 3.5625 5.25 3.5625 6 6 C5.34 6 4.68 6 4 6 C4 6.66 4 7.32 4 8 C3.01 7.67 2.02 7.34 1 7 C0.67 4.69 0.34 2.38 0 0 Z " fill="#FAF8EC" transform="translate(113,216)"/>
<path d="M0 0 C0.75 1.75 0.75 1.75 1 4 C-0.9375 6.25 -0.9375 6.25 -3 8 C-2.34 8.33 -1.68 8.66 -1 9 C-2.65 9.33 -4.3 9.66 -6 10 C-4.6302836 6.00499382 -2.74277578 3.19990508 0 0 Z " fill="#EFCA3C" transform="translate(52,331)"/>
<path d="M0 0 C1.65 0 3.3 0 5 0 C5 0.66 5 1.32 5 2 C5.66 2 6.32 2 7 2 C7 3.32 7 4.64 7 6 C4.08482708 4.92598892 2.22189824 4.22189824 0 2 C0 1.34 0 0.68 0 0 Z " fill="#EDC122" transform="translate(107,177)"/>
<path d="M0 0 C2.18975773 3.28463659 2.99806563 6.20696275 4 10 C2.68 10.33 1.36 10.66 0 11 C0 9.02 0 7.04 0 5 C-0.66 5 -1.32 5 -2 5 C-1.34 3.35 -0.68 1.7 0 0 Z " fill="#EDEFF6" transform="translate(115,131)"/>
<path d="M0 0 C0.763125 0.20625 1.52625 0.4125 2.3125 0.625 C-0.37591859 2.87745881 -2.33391875 4.50713958 -5.6875 5.625 C-5.6875 4.305 -5.6875 2.985 -5.6875 1.625 C-2.6875 -0.375 -2.6875 -0.375 0 0 Z " fill="#E9BF1C" transform="translate(264.6875,330.375)"/>
<path d="M0 0 C4.875 4.75 4.875 4.75 6 7 C4.68 7.33 3.36 7.66 2 8 C1.67 7.01 1.34 6.02 1 5 C1.33 4.34 1.66 3.68 2 3 C1.01 3.33 0.02 3.66 -1 4 C-0.67 2.68 -0.34 1.36 0 0 Z " fill="#EDC42F" transform="translate(107,152)"/>
<path d="M0 0 C0.99 1.485 0.99 1.485 2 3 C2.66 2.01 3.32 1.02 4 0 C4.125 5.75 4.125 5.75 3 8 C2.01 8 1.02 8 0 8 C0 5.36 0 2.72 0 0 Z " fill="#EBBF19" transform="translate(83,96)"/>
<path d="M0 0 C2.475 0.495 2.475 0.495 5 1 C5 3.64 5 6.28 5 9 C2.67527795 6.14693203 1.2491742 3.45925163 0 0 Z " fill="#605CF8" transform="translate(234,156)"/>
<path d="M0 0 C0.66 0.33 1.32 0.66 2 1 C0.87548273 3.9719385 -0.22293791 6.33440687 -2 9 C-2.6875 6.1875 -2.6875 6.1875 -3 3 C-1.5625 1.125 -1.5625 1.125 0 0 Z " fill="#F2F5F6" transform="translate(118,90)"/>
<path d="M0 0 C0 0.99 0 1.98 0 3 C0.31088368 4.67099977 0.64080332 6.33871537 1 8 C0.01 8.66 -0.98 9.32 -2 10 C-2 9.01 -2 8.02 -2 7 C-2.66 6.67 -3.32 6.34 -4 6 C-2.68 4.02 -1.36 2.04 0 0 Z " fill="#E8C016" transform="translate(94,72)"/>
<path d="M0 0 C0.99 0.33 1.98 0.66 3 1 C1.515 2.485 1.515 2.485 0 4 C1.65 4 3.3 4 5 4 C5 4.33 5 4.66 5 5 C1.625 5.125 1.625 5.125 -2 5 C-2.66 4.34 -3.32 3.68 -4 3 C-2.1875 1.4375 -2.1875 1.4375 0 0 Z " fill="#F9F6E1" transform="translate(128,162)"/>
<path d="M0 0 C-0.33 1.65 -0.66 3.3 -1 5 C-2.65 5 -4.3 5 -6 5 C-6.33 4.34 -6.66 3.68 -7 3 C-2.25 0 -2.25 0 0 0 Z " fill="#ECC22A" transform="translate(111,58)"/>
<path d="M0 0 C2.97 0.33 5.94 0.66 9 1 C4.82091936 3.08954032 4.19589427 3.16552619 0 2 C0 1.34 0 0.68 0 0 Z " fill="#EAC323" transform="translate(245,337)"/>
<path d="M0 0 C0.75 1.75 0.75 1.75 1 4 C-0.9375 6.25 -0.9375 6.25 -3 8 C-3.99 7.67 -4.98 7.34 -6 7 C-5.01 6.67 -4.02 6.34 -3 6 C-1.83333333 4.08333333 -1.83333333 4.08333333 -1 2 C-0.67 1.34 -0.34 0.68 0 0 Z " fill="#FAEFC7" transform="translate(278,319)"/>
<path d="M0 0 C0.99 0.33 1.98 0.66 3 1 C2.34 2.32 1.68 3.64 1 5 C-0.32 5 -1.64 5 -3 5 C-1.125 1.125 -1.125 1.125 0 0 Z " fill="#EBC123" transform="translate(61,320)"/>
<path d="M0 0 C0.33 0.66 0.66 1.32 1 2 C0.67 2.66 0.34 3.32 0 4 C0.66 4 1.32 4 2 4 C1.67 5.98 1.34 7.96 1 10 C-1 8 -1 8 -1.1875 4.4375 C-1 1 -1 1 0 0 Z " fill="#FCF6E5" transform="translate(268,288)"/>
<path d="M0 0 C1.485 0.99 1.485 0.99 3 2 C3.1875 4.625 3.1875 4.625 3 7 C2.01 6.67 1.02 6.34 0 6 C0 4.02 0 2.04 0 0 Z " fill="#6362F5" transform="translate(347,94)"/>
<path d="M0 0 C2 2 2 2 2 6 C0.02 6.99 0.02 6.99 -2 8 C-1.34 5.36 -0.68 2.72 0 0 Z " fill="#FAF2DA" transform="translate(105,90)"/>
</svg>
