<?xml version="1.0" encoding="UTF-8"?>
<svg version="1.1" xmlns="http://www.w3.org/2000/svg" width="1024" height="1024">
<path d="M0 0 C1.90394195 -0.00418169 3.8078814 -0.00966376 5.71181631 -0.01631981 C10.9009529 -0.03068318 16.08992942 -0.02655842 21.27907443 -0.019153 C26.89198184 -0.01440102 32.50485563 -0.02694895 38.11775208 -0.03717041 C49.096559 -0.05432319 60.07530859 -0.05520586 71.05412543 -0.04995751 C79.9804814 -0.04590856 88.90682049 -0.04736795 97.83317566 -0.05270576 C99.10582979 -0.05345419 100.37848391 -0.05420261 101.68970332 -0.05497371 C104.27544407 -0.05650525 106.86118483 -0.0580436 109.44692558 -0.05958868 C126.79400943 -0.06940934 144.14108233 -0.07358962 161.48816681 -0.06596279 C162.16550564 -0.06566562 162.84284447 -0.06536844 163.54070872 -0.06506227 C169.04014573 -0.06261367 174.53958267 -0.06000191 180.03901961 -0.05737813 C201.49060172 -0.04727498 222.94210555 -0.05563698 244.39367676 -0.07887268 C268.53025476 -0.1049748 292.66677161 -0.11773609 316.80336809 -0.11068493 C329.57036806 -0.10719594 342.33730377 -0.10940391 355.10429382 -0.12693596 C365.97047105 -0.14167336 376.83653873 -0.142273 387.70271385 -0.12486505 C393.24195469 -0.1163661 398.78099996 -0.11417871 404.32023048 -0.1295166 C409.39935112 -0.14340597 414.47810941 -0.138546 419.55720931 -0.11927737 C421.38607393 -0.11553013 423.21496787 -0.11840212 425.04380625 -0.12888902 C445.7410795 -0.23905125 465.07794387 4.04710427 480.40490723 18.9150238 C491.08084173 30.50656161 498.87901242 43.91474938 498.97277832 60.02854919 C498.98285416 61.12288773 498.98285416 61.12288773 498.99313354 62.23933411 C499.01201483 64.63390564 499.01603354 67.0281951 499.01818848 69.4228363 C499.02462623 71.10565298 499.0313553 72.78846855 499.0383606 74.47128296 C499.05031092 77.99576913 499.05404404 81.52015749 499.05285645 85.04466248 C499.05265407 89.52399406 499.07988125 94.00268537 499.11440086 98.48186588 C499.13683247 101.95925679 499.14068896 105.43649799 499.13963699 108.91395378 C499.14197147 110.5631015 499.15067098 112.21225474 499.16630173 113.86133003 C499.3312811 133.074682 494.3982669 148.58058595 481.68225098 163.38768005 C480.93588379 164.27713318 480.93588379 164.27713318 480.17443848 165.18455505 C469.82486282 176.52228115 454.74971957 183.54972788 439.68225098 185.38768005 C437.46672406 185.47154138 435.24911042 185.50975636 433.03199768 185.50793457 C431.73500946 185.50930923 430.43802124 185.5106839 429.10173035 185.51210022 C427.68203712 185.50856198 426.26234413 185.50492718 424.84265137 185.50120544 C423.33424888 185.5009231 421.82584626 185.50108223 420.31744385 185.50164795 C416.23739784 185.50193408 412.15738142 185.49606718 408.07734227 185.48907399 C403.80790562 185.48280972 399.53846825 185.48223422 395.26902771 185.48104858 C387.19087217 185.47794432 379.11273021 185.46974315 371.03458065 185.45969909 C361.83507889 185.44850983 352.63557648 185.44302042 343.43606961 185.43800366 C324.51812237 185.42755977 305.60018777 185.40997787 286.68225098 185.38768005 C286.37226669 186.33518631 286.06228241 187.28269257 285.74290466 188.25891113 C284.8788454 190.80775605 283.97061073 192.97525816 282.68615723 195.3212738 C282.10450806 196.39937317 282.10450806 196.39937317 281.5111084 197.49925232 C281.09321045 198.26680847 280.6753125 199.03436462 280.24475098 199.82518005 C276.42959138 206.94964095 272.82586233 214.14511709 269.36975098 221.45018005 C268.45476838 223.37093498 267.53939455 225.29150358 266.62365723 227.2118988 C265.08046028 230.44855274 263.54100423 233.68679324 262.0098877 236.92918396 C260.29747159 240.55105028 258.55282623 244.15667927 256.80725098 247.76268005 C256.27188721 248.90487 255.73652344 250.04705994 255.18493652 251.22386169 C254.67100342 252.27565613 254.15707031 253.32745056 253.62756348 254.41111755 C252.95491455 255.81756531 252.95491455 255.81756531 252.26867676 257.25242615 C250.68225098 259.38768005 250.68225098 259.38768005 247.99816895 260.19871521 C247.23391602 260.26107361 246.46966309 260.32343201 245.68225098 260.38768005 C245.34081055 259.77996765 244.99937012 259.17225525 244.64758301 258.54612732 C237.45217131 245.74986501 230.1955228 233.00004928 222.68225098 220.38768005 C222.20400879 219.58201599 221.7257666 218.77635193 221.23303223 217.9462738 C219.69844938 215.3623361 218.15975375 212.7808907 216.61975098 210.20018005 C216.16140869 209.42907898 215.70306641 208.65797791 215.23083496 207.86351013 C214.30484979 206.31739501 213.35670315 204.78432543 212.38630962 203.2656889 C210.68225098 200.38768005 210.68225098 200.38768005 209.11136341 196.8781023 C206.93414257 192.32843836 204.61179674 187.5819769 199.72284293 185.58888221 C193.76057209 184.29988216 187.66862839 184.64552311 181.60876465 184.81419373 C179.56110378 184.81978528 177.51341805 184.81917927 175.46575928 184.81286621 C169.91582272 184.81311921 164.37017889 184.89948688 158.82129836 185.00109649 C152.99462605 185.09266989 147.16780983 185.103531 141.3405304 185.12286377 C130.28913552 185.17152981 119.23969115 185.29063583 108.18918926 185.43595535 C94.46134869 185.61328887 80.73317224 185.70401344 67.0045166 185.79197693 C62.17527282 185.82336693 57.34603398 185.85539098 52.51679993 185.88824463 C51.34435661 185.89621057 50.1719133 185.90417652 48.9639414 185.91238385 C40.93823511 185.96939458 32.91299803 186.05033118 24.88761902 186.14187622 C21.66857195 186.17643537 18.44952095 186.2106035 15.23046875 186.2446804 C13.24410217 186.26704585 11.25775797 186.29153217 9.27144814 186.31847 C-0.55526397 186.45173123 -10.34975261 186.44552219 -20.16911316 185.99603271 C-20.97441052 185.96163658 -21.77970789 185.92724045 -22.6094082 185.89180201 C-41.63933046 184.8840473 -57.19703197 176.80258358 -70.31774902 163.38768005 C-70.98419434 162.7534613 -71.65063965 162.11924255 -72.33728027 161.46580505 C-85.86426154 147.66400927 -89.45480181 127.98824869 -89.52087402 109.5087738 C-89.5265741 108.26451126 -89.53227417 107.02024872 -89.53814697 105.73828125 C-89.54757376 103.10832055 -89.5541217 100.47834817 -89.5579834 97.84837341 C-89.5645118 93.86326507 -89.59869062 89.87852711 -89.63024902 85.89353943 C-89.63678329 83.32778725 -89.64203209 80.76203142 -89.64587402 78.1962738 C-89.65822083 77.02181198 -89.67056763 75.84735016 -89.68328857 74.63729858 C-89.65383586 63.47338648 -88.05431355 52.25059354 -82.81774902 42.26268005 C-82.47808105 41.6001825 -82.13841309 40.93768494 -81.78845215 40.25511169 C-78.01990287 33.2814482 -72.996731 27.84856228 -67.31774902 22.38768005 C-66.66161621 21.72381287 -66.0054834 21.05994568 -65.32946777 20.3759613 C-47.37208721 3.26453872 -23.67379137 -0.0855713 0 0 Z " fill="#FFFFFF" transform="translate(373.3177490234375,210.61231994628906)"/>
<path d="M0 0 C1.09116772 -0.00384115 2.18233545 -0.00768229 3.30656886 -0.01163983 C4.51527621 -0.01077335 5.72398355 -0.00990687 6.96931839 -0.00901413 C8.88420181 -0.01347081 8.88420181 -0.01347081 10.83776975 -0.01801753 C14.39367887 -0.02610685 17.94956782 -0.0278782 21.50548506 -0.028615 C25.33685952 -0.03046253 29.16822344 -0.03800899 32.99959183 -0.04475021 C41.38911131 -0.05835415 49.77862603 -0.06436324 58.16815472 -0.06876087 C63.41306726 -0.07152337 68.65797796 -0.07576108 73.90288925 -0.08026505 C88.43809646 -0.09246711 102.97330218 -0.1027602 117.5085144 -0.10614014 C118.43967495 -0.1063597 119.37083549 -0.10657927 120.33021303 -0.10680549 C121.26358029 -0.10702377 122.19694755 -0.10724204 123.15859866 -0.10746694 C125.04987129 -0.1079104 126.94114391 -0.10835696 128.83241653 -0.10880661 C129.77054897 -0.10902804 130.70868141 -0.10924947 131.6752421 -0.10947761 C146.83074593 -0.11341418 161.98620135 -0.13082897 177.14168653 -0.15416613 C192.72020895 -0.17795955 208.29870719 -0.19034584 223.87724805 -0.19150805 C232.61600071 -0.19242106 241.35469052 -0.19807705 250.09342575 -0.21632767 C257.54627961 -0.23183774 264.99905126 -0.23678609 272.45191821 -0.22858956 C276.24601878 -0.22471939 280.03995439 -0.22543082 283.83403397 -0.23964691 C305.62123379 -0.31651101 326.97493579 0.40037022 347.8802681 7.13142776 C348.49998489 7.33074905 349.11970169 7.53007034 349.75819778 7.73543167 C372.14179359 15.10397981 391.52835175 27.32809018 408.36610794 43.67293167 C409.78399738 45.03869618 411.23158804 46.37343592 412.68104935 47.70564651 C427.98604243 62.16897572 438.09734596 79.91698908 445.6302681 99.38142776 C445.90016556 100.05810501 446.17006302 100.73478226 446.44813919 101.43196487 C452.17995842 117.02032088 453.49628543 133.21328388 453.4115181 149.66658401 C453.41422555 151.56546602 453.41811824 153.46434666 453.42311478 155.36322403 C453.42894966 159.30701006 453.42064329 163.25042918 453.40175247 167.19417191 C453.37895086 172.1916945 453.3921326 177.18835783 453.41604233 182.18584919 C453.43065152 186.09580067 453.42582625 190.00555588 453.41553116 193.91551399 C453.4129062 195.755884 453.4159801 197.5962732 453.42544937 199.43662071 C453.48962565 215.40181995 451.48778395 230.91708628 445.6302681 245.88142776 C445.33507278 246.65671829 445.03987747 247.43200882 444.73573685 248.230793 C437.79299755 265.93804623 427.08573962 284.38174523 411.8802681 296.13142776 C410.21221196 297.79670381 408.54570972 299.46353696 406.8802681 301.13142776 C398.02719766 309.31089501 388.41560396 315.35027517 377.8802681 321.13142776 C376.97405716 321.6354512 376.06784622 322.13947464 375.13417435 322.65877151 C364.76949885 328.12950243 353.54191381 331.84451853 342.2552681 334.88142776 C341.52896194 335.07994339 340.80265579 335.27845901 340.05434036 335.48299026 C327.22203394 338.78980414 314.57885112 339.43367404 301.41835403 339.45027542 C299.70031085 339.45960082 297.98227207 339.46976824 296.26423836 339.48069954 C291.60703855 339.50788875 286.94986881 339.52312674 282.29261065 339.53611946 C277.32117611 339.55203027 272.34979952 339.57896745 267.37840652 339.60445023 C257.78391444 339.65180218 248.18941076 339.68861077 238.59485877 339.72134948 C230.82325887 339.74804662 223.05168367 339.77871752 215.28010941 339.81203079 C186.06688302 339.93694897 156.85363799 340.03991676 127.64026451 340.12349319 C125.0066779 340.13106436 122.37309177 340.13878459 119.73950577 340.14656448 C58.52582652 340.32685565 -2.68413511 340.16985926 -63.89639902 339.741153 C-68.40271186 339.70959265 -72.90902991 339.67904751 -77.41535527 339.64933044 C-85.12784464 339.5983549 -92.84026349 339.54166829 -100.5526638 339.4786129 C-103.12819117 339.45820029 -105.70373202 339.43941847 -108.27928352 339.42231941 C-111.79459818 339.39851277 -115.30980383 339.36852417 -118.82505417 339.33675003 C-120.38409627 339.32811778 -120.38409627 339.32811778 -121.97463417 339.31931114 C-122.91004099 339.30952169 -123.84544781 339.29973225 -124.80920029 339.28964615 C-125.62323602 339.2831936 -126.43727175 339.27674105 -127.27597523 339.27009296 C-129.1197319 339.13142776 -129.1197319 339.13142776 -130.1197319 338.13142776 C-130.5259819 335.98689651 -130.5259819 335.98689651 -130.1197319 333.13142776 C-128.35693946 330.72521609 -126.62867246 328.62272218 -124.6197319 326.44392776 C-123.50647867 325.19375905 -122.39450201 323.94245242 -121.2837944 322.69002151 C-120.73884323 322.08142288 -120.19389206 321.47282425 -119.63242722 320.84578323 C-117.67403786 318.62631744 -115.82607065 316.33139897 -113.9947319 314.00642776 C-111.01458147 310.24235467 -107.99458247 306.51619736 -104.9322319 302.81892776 C-104.13430222 301.85341995 -103.33637253 300.88791214 -102.51426315 299.89314651 C-96.05474517 292.44309885 -96.05474517 292.44309885 -92.1197319 291.13142776 C-90.01226183 291.03463984 -87.90180409 290.99941121 -85.79211617 290.99555588 C-85.1444323 290.99301326 -84.49674844 290.99047063 -83.82943779 290.98785096 C-81.64399159 290.98049118 -79.45860154 290.98025494 -77.27314377 290.97993851 C-75.69619788 290.97609004 -74.11925301 290.97180285 -72.5423094 290.96711302 C-68.196346 290.9554489 -63.8503931 290.94998303 -59.50441718 290.9454782 C-54.82091351 290.93953751 -50.13742387 290.92786672 -45.4539299 290.91684341 C-37.32963938 290.89847036 -29.20534854 290.88363296 -21.08104706 290.87106705 C-9.30736595 290.85276772 2.46629531 290.82809946 14.23996072 290.80169314 C33.37672989 290.75885804 52.5135046 290.71976474 71.65028763 290.68367386 C72.79641066 290.68151106 73.9425337 290.67934825 75.12338774 290.67711991 C82.08940139 290.6639937 89.0554152 290.65095319 96.02142906 290.6379385 C106.42831447 290.61848971 116.83519967 290.59893505 127.2420845 290.57918167 C128.38014155 290.5770228 129.51819859 290.57486393 130.69074221 290.57263964 C149.72828437 290.53640815 168.76581699 290.49643443 187.80334604 290.45387888 C199.53064573 290.42784669 211.25794266 290.4051578 222.98525707 290.3868953 C231.04444992 290.37413278 239.10363149 290.35797245 247.16281267 290.33924615 C251.79974099 290.32859225 256.43665866 290.3194332 261.07359695 290.3145504 C284.65650189 290.29736381 284.65650189 290.29736381 308.23021317 289.69380569 C309.20440535 289.65686615 310.17859754 289.61992661 311.1823107 289.58186769 C335.46072147 288.49378158 356.83431216 279.35597511 374.8802681 263.13142776 C375.64854935 262.45724808 376.4168306 261.78306839 377.2083931 261.08845901 C393.06994469 246.30837685 403.08596604 224.64995534 404.8802681 203.13142776 C405.0328878 198.66001684 405.04418012 194.19110498 405.04823685 189.71736526 C405.05156525 188.43012558 405.05489365 187.14288589 405.05832291 185.81663895 C405.06428369 183.0984806 405.06616611 180.38035389 405.06557083 177.66218948 C405.06546972 174.21999223 405.07908318 170.77800358 405.09634304 167.33585548 C405.11030335 164.00469007 405.1095563 160.67355939 405.11073685 157.34236526 C405.11792236 156.12729294 405.12510788 154.91222061 405.13251114 153.66032791 C405.05719987 124.91361141 394.96014644 99.51056786 375.41542435 78.47908401 C345.85991823 50.49724878 310.6024664 48.92373427 272.21303177 49.09724808 C269.45990666 49.10634438 266.7067778 49.11376542 263.95364761 49.12114334 C258.81951056 49.1354403 253.68538588 49.15167913 248.55126259 49.17027876 C238.4769698 49.20677219 228.40268151 49.23050313 218.32834244 49.24977493 C216.73654322 49.25288485 215.14474402 49.25600252 213.55294484 49.25912786 C211.14227353 49.26385254 208.73160221 49.26857089 206.32093083 49.27326025 C197.26998723 49.29092204 188.21904725 49.31002879 179.16810989 49.33064651 C178.34222834 49.33252357 177.51634678 49.33440062 176.66543851 49.33633456 C163.23893802 49.36732175 149.81251982 49.41300307 136.38607868 49.46305624 C122.57335724 49.51411109 108.76067969 49.54611048 94.94787198 49.5611999 C86.44002284 49.57116433 77.93250064 49.59651736 69.42476413 49.64165661 C63.60615083 49.67118025 57.78768264 49.68251407 51.96899589 49.67942145 C48.61205024 49.67820148 45.25607123 49.68791892 41.89916229 49.71399689 C38.26246254 49.74100274 34.62705118 49.73739948 30.99029922 49.72597122 C29.92767606 49.74121755 28.8650529 49.75646388 27.77022904 49.77217221 C20.6259917 49.70368895 20.6259917 49.70368895 16.8082056 46.7739563 C14.7505571 43.95363931 12.8507584 41.1343588 11.0677681 38.13142776 C10.37530568 36.97633239 9.68259009 35.82138876 8.9896431 34.66658401 C8.46660599 33.78704056 8.46660599 33.78704056 7.93300247 32.88972855 C6.26037751 30.09607247 4.53537891 27.33508006 2.8177681 24.56892776 C1.84323685 22.97371292 1.84323685 22.97371292 0.8490181 21.34627151 C-0.48880152 19.16169703 -1.84364827 16.98747783 -3.2134819 14.82283401 C-4.18801315 13.24308792 -4.18801315 13.24308792 -5.1822319 11.63142776 C-5.77133347 10.69299026 -6.36043503 9.75455276 -6.96738815 8.78767776 C-8.31136207 5.68970398 -8.2658826 4.27642098 -7.1197319 1.13142776 C-4.58651331 -0.13518153 -2.83694611 0.00373318 0 0 Z " fill="#FFFFFF" transform="translate(282.1197319030762,493.8685722351074)"/>
<path d="M0 0 C0.85978241 -0.00265183 1.71956482 -0.00530365 2.60540125 -0.00803584 C5.47003841 -0.01566068 8.33463223 -0.01628537 11.19927883 -0.01688576 C13.28039536 -0.0209048 15.36151111 -0.02534375 17.44262594 -0.03016531 C23.14904956 -0.04208592 28.85546474 -0.04776866 34.56189835 -0.05234647 C40.7207854 -0.05831916 46.87966246 -0.06992422 53.03854275 -0.08063698 C67.89994509 -0.10511395 82.76134874 -0.11977715 97.6227645 -0.13269705 C101.81990697 -0.13637048 106.0170491 -0.14037301 110.2141912 -0.14444971 C136.28240102 -0.16970329 162.35061152 -0.19174356 188.41883087 -0.20417786 C194.45106986 -0.20709898 200.48330882 -0.21006656 206.51554775 -0.21308327 C207.26494278 -0.21345418 208.0143378 -0.21382509 208.78644176 -0.21420723 C233.1016506 -0.22637172 257.41678721 -0.2573363 281.73196211 -0.29900479 C306.74270378 -0.34178704 331.75340727 -0.36841769 356.76418651 -0.37365257 C360.29587949 -0.374393 363.82757241 -0.37530367 367.35926533 -0.37631035 C368.40181937 -0.37659627 368.40181937 -0.37659627 369.46543512 -0.37688797 C380.64904197 -0.38040102 391.83255815 -0.40069529 403.01613171 -0.42710699 C414.25301062 -0.45324495 425.48978643 -0.46056713 436.72670109 -0.4500057 C442.81392153 -0.44481009 448.90085357 -0.44776518 454.98803234 -0.47247124 C460.55989044 -0.49489759 466.13125184 -0.49427504 471.70311826 -0.47526737 C473.71912367 -0.47245821 475.7351623 -0.47811644 477.75111414 -0.4930803 C497.44801802 -0.63035196 497.44801802 -0.63035196 505.59870678 6.62902415 C509.35091975 10.36958069 509.29858728 14.59780392 509.42350674 19.69951439 C509.36355603 27.02099433 507.48819884 31.96125612 502.42350674 37.26201439 C501.83569424 37.90396751 501.24788174 38.54592064 500.64225674 39.20732689 C490.47538474 46.42346879 479.06537432 45.70077557 467.17095852 45.63580894 C465.15868749 45.63953917 463.1464191 45.64503123 461.13415712 45.65212578 C455.62215473 45.66654134 450.11043604 45.65622765 444.59844387 45.64184272 C438.64658219 45.63070992 432.69476222 45.64272805 426.74290371 45.65202904 C416.43223628 45.66511239 406.12164362 45.66405405 395.81097507 45.65343475 C380.88178252 45.63826234 365.95268278 45.64836751 351.02349561 45.66495394 C344.05911089 45.67264606 337.09472501 45.67905065 330.13033867 45.68507099 C329.43319431 45.68567423 328.73604995 45.68627747 328.01778 45.68689899 C311.43484265 45.70092795 294.85190801 45.70197321 278.26896572 45.70122337 C277.54371457 45.70119439 276.81846343 45.70116541 276.07123497 45.70113556 C269.46004791 45.70086824 262.84886085 45.70051343 256.23767379 45.70008338 C240.07557812 45.6990824 223.91348305 45.70042699 207.7513876 45.7031765 C207.02790231 45.70329526 206.30441702 45.70341402 205.55900794 45.70353638 C189.02193904 45.70630715 172.4848768 45.71207468 155.94781303 45.72575092 C154.90341027 45.72661172 154.90341027 45.72661172 153.83790846 45.7274899 C146.88388557 45.73327353 139.92986323 45.73948329 132.97584135 45.74637356 C117.4056283 45.76166356 101.83549363 45.76590732 86.26527708 45.7537744 C76.057458 45.74642993 65.84967668 45.74954186 55.64186121 45.76073284 C49.75992048 45.76678256 43.87808563 45.76795784 37.99615192 45.75585556 C32.59902946 45.74481815 27.20209374 45.7478156 21.80497878 45.76139902 C19.86485653 45.76387087 17.9247194 45.7613929 15.98461319 45.75312514 C-6.51328701 45.66353733 -28.5799045 47.95512298 -48.07649326 60.13701439 C-49.11418858 60.78412376 -50.15188389 61.43123314 -51.22102451 62.09795189 C-64.55021667 70.85758707 -74.14492328 81.33444724 -82.07649326 95.13701439 C-82.56762608 95.97748314 -83.05875889 96.81795189 -83.56477451 97.68388939 C-88.96862616 107.65508313 -92.08810005 118.61573635 -93.20539951 129.85967064 C-93.32942142 131.08200401 -93.32942142 131.08200401 -93.45594883 132.32903099 C-94.26701193 141.03879215 -94.37892535 149.72894836 -94.33723545 158.47099876 C-94.32649758 161.1359435 -94.33722202 163.80021454 -94.34993076 166.46513939 C-94.37511477 196.28899626 -89.2476269 223.61733776 -67.52229404 245.71806908 C-48.98239429 263.13201626 -24.88539325 270.37989462 0.16561794 270.24139977 C1.49387355 270.24033994 1.49387355 270.24033994 2.8489626 270.23925871 C5.79205094 270.2359059 8.73507341 270.22556138 11.67814541 270.21538353 C13.79778875 270.21186436 15.91743307 270.20889824 18.0370779 270.20644188 C22.58939302 270.20078381 27.14169608 270.19277942 31.69400501 270.18341827 C38.89204706 270.17021252 46.09003576 270.17197915 53.28808498 270.17764854 C55.11226579 270.17902867 55.11226579 270.17902867 56.97329873 270.18043667 C60.71646715 270.18340696 64.45963537 270.18657154 68.20280361 270.18974876 C83.69533463 270.20255152 99.18761172 270.20442801 114.68009853 270.16118431 C125.99148723 270.1297172 137.30249119 270.12634528 148.61389047 270.15594381 C154.5968362 270.17050518 160.57901176 270.17062875 166.56189442 270.13654327 C172.18395631 270.10478405 177.80475178 270.11011374 183.42678928 270.14404488 C185.48997064 270.1498705 187.55324276 270.14199763 189.61630917 270.11945343 C192.4331877 270.0906902 195.24560725 270.11108268 198.06234646 270.14374352 C199.28758952 270.11360266 199.28758952 270.11360266 200.53758496 270.0828529 C204.10656801 270.17125367 206.11520715 270.35626781 208.74472773 272.89615428 C210.27944945 274.91810039 211.62910611 276.95515053 212.92350674 279.13701439 C213.4699081 279.96402855 214.01630947 280.79104271 214.57926846 281.6431179 C214.99966396 282.34364281 215.42005947 283.04416771 215.85319424 283.76592064 C216.33506191 284.56642845 216.81692959 285.36693626 217.31339931 286.19170189 C217.80348476 287.01928001 218.29357021 287.84685814 218.79850674 288.69951439 C219.3137289 289.56705345 219.82895107 290.43459251 220.35978603 291.32842064 C223.54715108 296.72921984 226.70530749 302.14654716 229.73600674 307.63701439 C230.25106777 308.54302391 230.25106777 308.54302391 230.77653408 309.46733665 C233.02108409 313.63296796 233.02108409 313.63296796 232.50041103 316.32256126 C232.21484341 317.22071556 232.21484341 317.22071556 231.92350674 318.13701439 C203.15878483 318.15991011 174.394064 318.17756669 145.62933475 318.18807972 C142.22039336 318.18933017 138.811452 318.19062452 135.40251064 318.19194603 C134.38467764 318.1923395 134.38467764 318.1923395 133.34628236 318.19274091 C122.41143054 318.19707227 111.47658407 318.20494565 100.54173541 318.21416719 C89.29121655 318.22357461 78.04070033 318.22901021 66.79017735 318.23110288 C60.48374439 318.23239827 54.17732349 318.23540896 47.87089443 318.24274445 C41.91526575 318.24961469 35.95965391 318.25160937 30.00402164 318.25012207 C27.83714932 318.25039352 25.67027633 318.25233255 23.50340748 318.25621986 C12.32662794 318.27525941 1.17100441 318.1460111 -9.99812412 317.70804405 C-10.97594884 317.67134324 -11.95377356 317.63464243 -12.96122932 317.59682947 C-49.01134668 316.02526932 -81.57477903 299.63511868 -106.54133701 274.00810814 C-109.07649326 271.13701439 -109.07649326 271.13701439 -109.07649326 269.13701439 C-109.73649326 269.13701439 -110.39649326 269.13701439 -111.07649326 269.13701439 C-112.86807533 266.86155203 -114.51710248 264.59295745 -116.13899326 262.19951439 C-116.62778965 261.47876732 -117.11658604 260.75802025 -117.62019444 260.01543236 C-126.41556486 246.80737731 -132.6932018 233.38211694 -137.07649326 218.13701439 C-137.39360264 217.07611595 -137.71071201 216.01521751 -138.03743076 214.92217064 C-143.97929109 192.53724139 -142.41656231 168.17803661 -142.10322666 145.22527122 C-142.07965184 143.38374363 -142.06425619 141.54211523 -142.05012608 139.70049095 C-141.69592119 103.04639189 -128.14253832 70.66038765 -103.07649326 44.13701439 C-102.27985264 43.26431908 -101.48321201 42.39162376 -100.66243076 41.49248314 C-88.85658078 29.02678958 -74.66596027 20.1191695 -59.07649326 13.13701439 C-57.93567295 12.60592064 -56.79485264 12.07482689 -55.61946201 11.52763939 C-38.22269389 3.95194238 -18.95113322 -0.02911099 0 0 Z " fill="#FFFFFF" transform="translate(354.07649326324463,145.8629856109619)"/>
<path d="M0 0 C1.64058489 -0.00330265 3.28116897 -0.00702906 4.92175204 -0.01114148 C9.420086 -0.02112382 13.91840661 -0.02487218 18.41675007 -0.02753079 C23.27247309 -0.03144501 28.12818566 -0.04102248 32.98390198 -0.04974365 C44.70488729 -0.06947556 56.42587342 -0.07956968 68.14687118 -0.08847144 C73.67206795 -0.09285932 79.19726377 -0.0982248 84.72245979 -0.10346031 C103.09845118 -0.12046858 121.47444198 -0.13496197 139.85044003 -0.14220905 C144.61550841 -0.14411881 149.38057678 -0.14603917 154.14564514 -0.147995 C155.92205315 -0.14872061 155.92205315 -0.14872061 157.73434819 -0.14946087 C176.91180213 -0.15775834 196.08919364 -0.1830923 215.26662033 -0.21557567 C234.97324319 -0.24868226 254.67983435 -0.26666103 274.38648516 -0.26985329 C285.44393416 -0.27201495 296.50129208 -0.28071322 307.55871391 -0.30631447 C316.97687454 -0.32807059 326.39492195 -0.33604772 335.81310486 -0.32634769 C340.61321165 -0.32181735 345.4130851 -0.32361519 350.21315956 -0.34310913 C354.61848561 -0.36084446 359.02340987 -0.35965995 363.42874081 -0.34421184 C365.01157116 -0.3418514 366.5944301 -0.34607681 368.177217 -0.35804049 C392.84527585 -0.53275486 414.30297746 7.70099585 432.00868225 25.02998352 C448.13698922 41.48567266 454.29737226 61.72373362 454.3407135 84.34638977 C454.3473703 85.58024918 454.3540271 86.81410858 454.36088562 88.08535767 C454.37095759 90.68301414 454.37570434 93.28069621 454.37538147 95.87837219 C454.37974449 99.80630683 454.41609792 103.73310713 454.45399475 107.6608429 C454.51207063 120.73622049 454.29709772 132.70403147 450.004776 145.14717102 C449.55388611 146.55990295 449.55388611 146.55990295 449.09388733 148.00117493 C443.26605438 165.5121549 427.92567852 179.69390878 412.004776 188.14717102 C399.30768464 194.1790434 386.06540694 196.61791132 372.08390808 196.50793457 C370.25286791 196.51177948 370.25286791 196.51177948 368.38483703 196.51570207 C365.04139953 196.51974985 361.69850364 196.51052595 358.35513234 196.49536788 C354.73298701 196.4822956 351.11085555 196.48680481 347.48869324 196.48907471 C341.22794342 196.49064044 334.9672881 196.48130498 328.70656204 196.46436119 C319.65485016 196.43988006 310.60318353 196.43215665 301.55144213 196.42839722 C286.86219556 196.42184696 272.17299923 196.40192467 257.48377991 196.37348938 C243.22271474 196.34591178 228.96166327 196.32469636 214.70057678 196.31196594 C213.82010422 196.31117777 212.93963166 196.3103896 212.03247811 196.30957755 C207.61498199 196.30566216 203.19748577 196.3018711 198.77998948 196.29814184 C162.18821619 196.26709036 125.59650002 196.21429361 89.004776 196.14717102 C87.7959031 193.72942521 87.88418257 192.21386038 87.89125061 189.51387024 C87.89132614 188.55302521 87.89140167 187.59218018 87.89147949 186.60221863 C87.89664078 185.56259979 87.90180206 184.52298096 87.90711975 183.45185852 C87.90924217 181.85798813 87.90924217 181.85798813 87.91140747 180.23191833 C87.91701766 176.82864093 87.92957191 173.42542864 87.942276 170.02217102 C87.94728969 167.71878655 87.95185282 165.41540106 87.95594788 163.11201477 C87.96699041 157.45704453 87.98373849 151.80211243 88.004776 146.14717102 C88.5969228 146.14581449 89.1890696 146.14445796 89.79916024 146.14306033 C124.92193856 146.06234876 160.04467574 145.97136903 195.16739227 145.86711941 C199.38792621 145.85460107 203.6084604 145.84216821 207.82899475 145.82978821 C208.66920039 145.82732221 209.50940603 145.82485622 210.37507245 145.8223155 C223.96606003 145.78262981 237.55705589 145.74986395 251.1480675 145.7196712 C265.10154336 145.6885186 279.05498422 145.649893 293.00842071 145.60438097 C301.6131756 145.57654877 310.217905 145.55449298 318.82269272 145.53990851 C324.72937095 145.52933783 330.63599971 145.51148534 336.5426406 145.48800398 C339.94660679 145.47468381 343.35044336 145.4655634 346.75444412 145.46295738 C350.45502865 145.45961761 354.15537551 145.4440935 357.85591125 145.42564392 C358.91820458 145.42757866 359.9804979 145.42951339 361.07498193 145.43150675 C373.6845664 145.33795099 385.34086988 143.91363089 395.1063385 135.29170227 C403.16839878 126.69788908 405.14237926 117.33565658 405.207901 105.81904602 C405.21360107 105.02999878 405.21930115 104.24095154 405.22517395 103.42799377 C405.23458197 101.76392439 405.24114115 100.09983672 405.24501038 98.43574524 C405.25469341 95.91864181 405.28574687 93.40236379 405.317276 90.88545227 C405.40813995 77.26970945 403.94029215 67.73900806 394.44618225 57.45967102 C386.57048698 49.90504726 375.61690531 48.02079495 365.0663929 48.02412319 C364.38918548 48.02296935 363.71197806 48.0218155 363.01424921 48.02062669 C360.74667243 48.01798135 358.47916675 48.022465 356.21159363 48.0269165 C354.56886938 48.02648038 352.9261452 48.0256047 351.2834214 48.02432734 C346.7705438 48.02209054 342.25768992 48.02609255 337.74481535 48.0311054 C332.87779968 48.03542138 328.01078536 48.03396266 323.14376831 48.03320312 C314.71171374 48.03267862 306.27966691 48.03581777 297.84761429 48.04144096 C285.65626116 48.04956588 273.46491176 48.0521722 261.27355622 48.05342896 C241.49418205 48.05561791 221.714812 48.06227377 201.93544006 48.07173157 C182.72092204 48.08090972 163.50640514 48.08798858 144.29188538 48.09223938 C143.10762447 48.0925021 141.92336357 48.09276483 140.70321597 48.09303551 C134.7621635 48.09434054 128.82111101 48.09560425 122.88005853 48.09684741 C73.58829484 48.10721516 24.29653562 48.12482924 -24.995224 48.14717102 C-26.35094522 52.21433469 -25.12729316 53.50608603 -23.307724 57.33467102 C-15.36810839 74.85729866 -13.46327803 93.56775226 -16.245224 112.52217102 C-16.37944763 113.44046692 -16.51367126 114.35876282 -16.65196228 115.30488586 C-18.3970562 126.54376719 -22.23945608 135.6844816 -26.995224 146.14717102 C-17.425224 146.47717102 -7.855224 146.80717102 2.004776 147.14717102 C2.0276797 153.96483953 2.04760841 160.78237561 2.05970764 167.60005188 C2.06474934 169.92134553 2.07158252 172.24263599 2.08021545 174.56391907 C2.09228825 177.89245897 2.09800579 181.22095704 2.10243225 184.54951477 C2.10759354 185.59429489 2.11275482 186.63907501 2.11807251 187.71551514 C2.11814804 188.6764357 2.11822357 189.63735626 2.11830139 190.62739563 C2.120522 191.47788986 2.12274261 192.32838409 2.12503052 193.20465088 C2.004776 195.14717102 2.004776 195.14717102 1.004776 196.14717102 C-10.78950944 197.1733149 -23.19605838 197.4057509 -33.995224 192.14717102 C-34.88596619 191.76947571 -35.77670837 191.3917804 -36.69444275 191.00263977 C-49.7226244 184.85095914 -59.64979488 173.02314628 -65.370224 160.02217102 C-66.40836088 155.24674139 -67.05220959 151.03136272 -64.557724 146.58467102 C-62.32300478 144.45896249 -60.09576608 142.72147437 -57.620224 140.89717102 C-47.46276634 133.13753943 -42.81362714 120.98554724 -40.682724 108.64717102 C-38.66976692 92.71605356 -39.51655195 76.63949626 -48.995224 63.14717102 C-51.29528645 61.53909317 -53.24824827 60.70126989 -55.91319275 59.86592102 C-60.21455146 58.38102421 -62.56411039 54.79384143 -64.995224 51.14717102 C-67.04609577 41.87969782 -65.45939201 33.96755565 -60.620224 25.89717102 C-58.29183078 22.43623608 -55.82863827 19.21032159 -52.995224 16.14717102 C-52.335224 16.14717102 -51.675224 16.14717102 -50.995224 16.14717102 C-50.995224 15.48717102 -50.995224 14.82717102 -50.995224 14.14717102 C-36.05072009 1.54035487 -18.80508281 -0.00342981 0 0 Z " fill="#FFFFFF" transform="translate(208.99522399902344,565.8528289794922)"/>
<path d="M0 0 C3.30307564 0.06437966 6.60597438 0.10485454 9.90942383 0.14501953 C12.02338301 0.18395046 14.13731737 0.22425935 16.2512207 0.26611328 C17.23226273 0.27564026 18.21330475 0.28516724 19.22407532 0.29498291 C20.12740097 0.31800476 21.03072662 0.34102661 21.96142578 0.36474609 C23.14856926 0.38592499 23.14856926 0.38592499 24.35969543 0.40753174 C26.41918945 0.81298828 26.41918945 0.81298828 28.17552185 1.85322571 C30.12342849 4.92272315 29.81890522 8.09706059 29.77563477 11.61743164 C29.77767914 12.41123734 29.77972351 13.20504303 29.78182983 14.02290344 C29.78484053 16.64977983 29.76635031 19.27603012 29.74731445 21.90283203 C29.74425681 23.7274205 29.74238073 25.5520113 29.74163818 27.37660217 C29.73703308 31.20241212 29.72260071 35.02801182 29.70043945 38.85375977 C29.67217702 43.75769792 29.66123001 48.66147028 29.65675735 53.56548214 C29.65259946 57.3341284 29.64277854 61.10274116 29.63088226 64.87137032 C29.62518468 66.67947688 29.62042429 68.48758664 29.6166153 70.29569817 C29.60973797 72.82357297 29.59609792 75.35131739 29.58032227 77.87915039 C29.57920441 78.62681671 29.57808655 79.37448303 29.57693481 80.14480591 C29.54917354 83.5048747 29.46563045 86.60030232 28.41918945 89.81298828 C22.21078124 89.50749518 18.55060064 86.37370112 13.79418945 82.75048828 C12.19347138 81.5683544 10.5919069 80.3873658 8.98950195 79.20751953 C7.46600251 78.07609251 5.94256091 76.94458761 4.41918945 75.81298828 C2.18624893 74.15914882 -0.05965869 72.54031722 -2.33081055 70.93798828 C-3.2125293 70.30119141 -4.09424805 69.66439453 -5.00268555 69.00830078 C-8.47523194 67.398302 -9.94787748 67.61254083 -13.58081055 68.81298828 C-16.26537066 70.44748809 -18.68925619 72.35404753 -21.14331055 74.31298828 C-22.55613826 75.40313211 -23.97021933 76.49165336 -25.38549805 77.57861328 C-26.08771484 78.12195313 -26.78993164 78.66529297 -27.51342773 79.22509766 C-30.5577052 81.56330982 -33.64173672 83.83631562 -36.76831055 86.06298828 C-37.77249023 86.79001953 -38.77666992 87.51705078 -39.8112793 88.26611328 C-42.80843966 89.94012668 -44.23777483 89.95188684 -47.58081055 89.81298828 C-47.60393296 78.35648812 -47.62172511 66.89999347 -47.63262272 55.44347477 C-47.63785177 50.12433615 -47.64494981 44.80521344 -47.65625 39.48608398 C-47.6670781 34.35734843 -47.67308721 29.22862822 -47.67568779 24.09988213 C-47.67754218 22.13857214 -47.68116306 20.17726304 -47.6865406 18.21595955 C-47.69375001 15.47883381 -47.69480153 12.74177231 -47.69433594 10.00463867 C-47.69793121 9.18536896 -47.70152649 8.36609924 -47.70523071 7.52200317 C-47.69486271 1.92704044 -47.69486271 1.92704044 -46.58081055 0.81298828 C-45.10564159 0.65109374 -43.62310003 0.55562429 -42.140625 0.48779297 C-40.7207856 0.42280609 -40.7207856 0.42280609 -39.27226257 0.35650635 C-38.23584122 0.31636414 -37.19941986 0.27622192 -36.1315918 0.23486328 C-35.05855301 0.19230408 -33.98551422 0.14974487 -32.87995911 0.105896 C-21.91391946 -0.28193408 -10.96885696 -0.22595494 0 0 Z " fill="#FFFFFF" transform="translate(263.580810546875,680.18701171875)"/>
</svg>
